<svg version="1" xmlns="http://www.w3.org/2000/svg" width="682.667" height="682.667" viewBox="0 0 512.000000 512.000000"><path d="M223.5 1.6C148.9 11.7 84.3 51.9 42.8 113.9c-18.2 27.2-31.9 60-38.2 91.1-6.2 31.1-6.2 70.9 0 102 9.8 49 37 98.4 73 133 35.4 34 80.8 58 127.4 67.4 31.1 6.2 70.9 6.2 102 0 75.5-15.2 142.2-66 177.4-135.3C503.6 334.4 512 299 512 256c0-43.1-8.4-78.3-27.7-116.2C445.9 64.1 372.8 12.7 287.7 1.5c-14.6-1.9-50-1.9-64.2.1zm41.4 64.6c16.2 26 29.9 55.8 37.4 81.5l1.6 5.3h-95.8l1.6-5.3c4.7-16.2 17-44.7 27.4-63.9 7-12.8 18-30.8 18.9-30.8.3 0 4.3 6 8.9 13.2zm-83.4 10c-12.4 26.1-21.4 49.7-26.3 68.8l-1.9 7.5-36.2.3c-19.8.1-36.1-.1-36.1-.4 0-.4 2.5-4.3 5.5-8.8C108.4 111 140 84.3 176 67.9c5.8-2.7 10.8-4.8 11.2-4.9.4 0-2.2 6-5.7 13.2zm161.1-5.1c15.1 7.4 31.8 18 43.6 27.6 12.6 10.3 28.2 27.5 36.9 40.6 4.3 6.6 7.9 12.4 7.9 12.8 0 .5-15.9.8-36.1.7l-36.1-.3-3.3-12c-5.4-19.7-16.5-47.7-27.9-70.4-4.5-8.8-5.1-8.9 15 1zM144.3 214.2c-1.1 12.5-1 55.4.1 76l.9 16.8H59.2l-2-7.8c-4-14.9-4.7-21.2-4.7-43.2 0-22 .7-28.3 4.7-43.3l2-7.7h85.9l-.8 9.2zm173.1-6c2.9 16.9 4 29 3.9 45.8 0 17-.3 19.9-3.5 35.5l-3.5 17H197.5l-1.7-12c-3.7-25.2-3.8-50.1-.3-75 .9-6.6 1.8-12.6 2-13.3.4-.9 13.2-1.2 59.9-1.2h59.4l.6 3.2zm139.8 3.6c3.9 14.6 5.2 25.4 5.2 44.2 0 18.8-1.3 29.6-5.2 44.2l-1.7 6.3-43.4.3c-40.8.2-43.3.1-42.7-1.5.4-1 1.2-11.9 1.8-24.3 1-19 .9-26.3-.5-47-1-13.5-1.7-25.5-1.7-26.8V205l43.2.2 43.3.3 1.7 6.3zM155.6 368.7c4.8 18.5 13.5 41 25.9 67 3.5 7.3 6.2 13.3 6 13.3-1.2 0-18.5-7.9-25.5-11.7-30.3-16.4-56.1-39.2-73-64.4-4.4-6.6-8-12.4-8-13 0-.6 13.3-.8 36.1-.7l36.2.3 2.3 9.2zm145.8-1.6c-6.5 20.8-21 52.5-35 75.9-8.3 13.8-10.2 16.6-10.8 15.9-.3-.3-4.2-6.3-8.6-13.4-14.8-23.5-30.7-58-36.9-79.8l-2-6.7H303.8l-2.4 8.1zm129.6-7.3c0 1.5-12.2 19.6-17.9 26.6-18.8 23-48.8 45.3-78.1 58.2-5.5 2.4-10.2 4.4-10.4 4.4-.2 0 1.9-4.6 4.8-10.3 10.8-21.4 21.9-50 26.6-69 1.2-4.5 2.3-8.8 2.5-9.5.3-.9 8.5-1.2 36.5-1.2 19.8 0 36 .4 36 .8z"/></svg>